<svg width="264" height="171" viewBox="0 0 264 171" fill="none" xmlns="http://www.w3.org/2000/svg">
<path d="M132 171C204.902 171 264 167.549 264 163.292C264 159.035 204.902 155.584 132 155.584C59.0984 155.584 0 159.035 0 163.292C0 167.549 59.0984 171 132 171Z" fill="#F1F1F1"/>
<path d="M178.477 105.077H111.568C111.421 105.077 111.276 105.044 111.144 104.978C111.011 104.913 110.896 104.817 110.807 104.7C110.718 104.583 110.658 104.446 110.63 104.301C110.603 104.156 110.609 104.007 110.649 103.865V103.79C111.97 99.0237 116.892 95.2104 121.624 95.2104H180.683C180.83 95.2112 180.975 95.2459 181.106 95.3118C181.237 95.3777 181.351 95.4731 181.439 95.5904C181.528 95.7077 181.588 95.8439 181.615 95.9882C181.642 96.1325 181.635 96.2812 181.595 96.4225L179.362 104.383C179.31 104.578 179.195 104.752 179.035 104.877C178.876 105.002 178.68 105.072 178.477 105.077Z" fill="#8B3BDC"/>
<path d="M179.778 162.541H182.44L172.459 105.077H169.797L179.778 162.541Z" fill="#8B3BDC"/>
<path opacity="0.6" d="M179.778 162.541H182.44L172.459 105.077H169.797L179.778 162.541Z" fill="white"/>
<path d="M164.807 162.541H167.469L162.479 105.077H159.817L164.807 162.541Z" fill="#8B3BDC"/>
<path opacity="0.6" d="M164.807 162.541H167.469L162.479 105.077H159.817L164.807 162.541Z" fill="white"/>
<path d="M111.609 162.541H108.947L118.928 105.077H121.59L111.609 162.541Z" fill="#8B3BDC"/>
<path opacity="0.6" d="M111.609 162.541H108.947L118.928 105.077H121.59L111.609 162.541Z" fill="white"/>
<path d="M126.58 162.541H123.918L128.915 105.077H131.57L126.58 162.541Z" fill="#8B3BDC"/>
<path opacity="0.6" d="M126.58 162.541H123.918L128.915 105.077H131.57L126.58 162.541Z" fill="white"/>
<path d="M159.285 13.5831C162.505 13.0488 164.656 9.8488 164.089 6.43561C163.523 3.02243 160.454 0.688604 157.235 1.22287C154.015 1.75714 151.864 4.95718 152.43 8.37036C152.996 11.7835 156.065 14.1174 159.285 13.5831Z" fill="#263238"/>
<path d="M154.234 13.6414C154.234 13.6414 158.407 16.6375 163.765 13.0966C160.967 13.8388 157.869 12.654 157.869 12.654L154.234 13.6414Z" fill="#263238"/>
<path d="M158.012 8.56837C158.509 11.5509 156.76 14.3291 154.112 14.7649C151.463 15.2007 148.917 13.1443 148.42 10.1618C147.923 7.17927 149.673 4.40106 152.321 3.95845C154.969 3.51584 157.502 5.58588 158.012 8.56837Z" fill="#8B3BDC"/>
<path d="M148.556 24.5295C153.853 23.1336 160.28 14.3155 154.575 5.58591C152.416 5.58591 146.507 7.58104 146.507 7.58104L148.556 24.5295Z" fill="#263238"/>
<path d="M134.777 4.2785C130.692 7.90788 128.731 17.7406 137.936 23.8962C139.862 22.9225 144.247 18.4828 144.247 18.4828L134.777 4.2785Z" fill="#263238"/>
<path d="M135.955 44.8554C135.955 45.8496 135.88 46.7075 135.805 47.6132C135.73 48.5188 135.648 49.404 135.546 50.2893C135.362 52.0733 135.117 53.8369 134.824 55.6005C134.241 59.1186 133.48 62.6049 132.544 66.0461L131.802 68.62L130.985 71.1735C130.591 72.4917 129.852 73.6805 128.844 74.6168C127.836 75.553 126.596 76.2027 125.252 76.4984C123.147 76.9135 120.971 76.8107 118.914 76.1988C117.986 75.9544 117.076 75.6449 116.191 75.2727C115.313 74.9142 114.461 74.4979 113.638 74.0266L115 70.8399C115.728 70.9829 116.572 71.1599 117.355 71.2688C118.138 71.3778 118.941 71.4663 119.711 71.5004C121.049 71.629 122.4 71.4711 123.673 71.0373C124.035 70.9037 124.35 70.667 124.578 70.3564C124.663 70.2313 124.731 70.0964 124.783 69.9546C124.783 69.8797 124.837 69.7912 124.864 69.7027C124.868 69.6528 124.868 69.6027 124.864 69.5529L124.919 69.3486L125.538 66.9109L126.103 64.4527C126.825 61.1706 127.411 57.8544 127.887 54.5247C128.132 52.8632 128.336 51.1949 128.527 49.5266C128.616 48.6959 128.697 47.8583 128.765 47.0344C128.833 46.2105 128.908 45.3457 128.949 44.6103L135.955 44.8554Z" fill="#FF8B7B"/>
<path d="M131.032 38.3661C128.548 39.8777 126.015 50.7046 126.015 50.7046L136.724 56.1521C136.724 56.1521 141.285 44.4808 139.161 41.3622C136.908 38.0733 134.647 36.153 131.032 38.3661Z" fill="#8B3BDC"/>
<path opacity="0.2" d="M128.956 46.4896C128.465 48.3618 128.479 50.3308 128.997 52.1958L136.71 56.152C136.71 56.152 139.372 49.3427 139.679 44.726C136.949 42.009 130.678 41.6686 128.956 46.4896Z" fill="black"/>
<path d="M116.334 71.2892L109.438 66.7814L110.52 72.8622C110.52 72.8622 113.032 74.4351 114.605 74.0879L116.334 71.2892Z" fill="#FF8B7B"/>
<path d="M129.283 43.3845C129.678 49.404 130.985 60.1764 134.892 77.9011L162.581 76.2669C161.45 65.0246 161.028 58.0723 165.052 34.6209C161.129 34.0494 157.17 33.7627 153.206 33.7629C149 33.7139 144.796 33.9619 140.625 34.5052C138.814 34.7775 136.928 35.1452 135.219 35.5061C133.448 35.8853 131.872 36.8906 130.782 38.3378C129.691 39.7849 129.159 41.5767 129.283 43.3845Z" fill="#8B3BDC"/>
<path opacity="0.2" d="M142.586 39.8097C142.586 39.8097 145.309 43.2552 149.012 44.3719C152.716 45.4886 153.778 37.9235 153.206 33.7698C149.775 32.9118 142.586 39.8097 142.586 39.8097Z" fill="black"/>
<path d="M142.586 39.8096C142.586 39.8096 145.656 42.8943 149.394 44.0042C153.131 45.1141 153.792 37.9235 153.233 33.7902C149.775 32.9118 142.586 39.8096 142.586 39.8096Z" fill="white"/>
<path opacity="0.2" d="M142.586 39.8097C141.435 41.759 139.638 43.2432 137.507 44.0042C133.878 45.3661 137.745 36.0237 140.625 34.512C144.056 33.6813 142.586 39.8097 142.586 39.8097Z" fill="black"/>
<path d="M142.586 39.8097C141.32 41.6364 139.456 42.9635 137.316 43.5616C133.613 44.6715 137.745 36.0237 140.625 34.512C144.056 33.6813 142.586 39.8097 142.586 39.8097Z" fill="white"/>
<path d="M162.901 74.619L163.758 77.0568C163.86 77.2407 163.649 77.4517 163.329 77.4722L134.824 79.1541C134.579 79.1541 134.361 79.0587 134.334 78.9021L133.939 76.4371C133.939 76.2669 134.123 76.1103 134.396 76.0899L162.438 74.4352C162.524 74.4238 162.612 74.4346 162.693 74.4668C162.774 74.499 162.845 74.5514 162.901 74.619Z" fill="white"/>
<path d="M159.224 77.9828L159.98 77.942C160.13 77.942 160.239 77.8466 160.219 77.7513L159.681 74.5509C159.681 74.4556 159.531 74.3875 159.381 74.4011L158.625 74.4419C158.475 74.4419 158.366 74.5373 158.387 74.6258L158.925 77.8262C158.945 77.9419 159.075 77.9896 159.224 77.9828Z" fill="#263238"/>
<path d="M136.956 79.3038L137.705 79.2562C137.854 79.2562 137.963 79.1676 137.95 79.0723L137.405 75.8719C137.405 75.7766 137.255 75.7085 137.105 75.7153L136.35 75.763C136.2 75.763 136.091 75.8583 136.111 75.9468L136.649 79.1472C136.67 79.2357 136.806 79.3038 136.956 79.3038Z" fill="#263238"/>
<path d="M148.046 78.6229L148.795 78.5752C148.945 78.5752 149.054 78.4867 149.04 78.3914L148.482 75.2182C148.482 75.1229 148.332 75.0548 148.182 75.0616L147.433 75.1093C147.283 75.1093 147.174 75.2046 147.188 75.2931L147.726 78.4935C147.76 78.5821 147.896 78.6229 148.046 78.6229Z" fill="#263238"/>
<path opacity="0.2" d="M164.446 38.2435C162.049 39.3855 160.145 41.3568 159.088 43.7931C157.856 46.8982 161.416 53.0742 162.267 54.4634C162.662 50.0986 163.364 44.8826 164.446 38.2435Z" fill="black"/>
<path d="M151.204 21.1929C150.653 25.2785 150.204 31.2299 153.199 33.763C149.056 36.4652 145.466 39.9316 142.62 43.977C137.793 37.5966 140.618 34.4848 140.618 34.4848C145.07 33.1229 144.846 31.3184 143.872 28.2202L151.204 21.1929Z" fill="#FF8B7B"/>
<path opacity="0.2" d="M148.223 24.0733L143.886 28.2338C144.123 28.9526 144.296 29.6909 144.403 30.44C146.112 30.0927 148.733 28.4585 148.999 26.5655C149.121 25.6735 148.393 24.4818 148.223 24.0733Z" fill="black"/>
<path d="M151.075 11.6326C152.151 18.3262 152.743 21.1316 150.17 25.2513C146.296 31.475 137.84 31.332 134.79 25.0947C132.067 19.477 130.746 9.47404 136.615 5.39525C137.908 4.48995 139.411 3.93049 140.981 3.77006C142.551 3.60963 144.136 3.85356 145.585 4.47866C147.034 5.10376 148.299 6.08925 149.26 7.34142C150.221 8.59359 150.846 10.0708 151.075 11.6326Z" fill="#FF8B7B"/>
<path d="M149.237 2.73958C142.429 -2.14271 125.627 -0.0726686 128.207 5.5859C131.312 12.3952 136.642 12.5723 136.642 12.5723C136.642 12.5723 134.518 11.5509 134.566 10.189C139.556 8.63648 143.375 11.7756 145.533 9.72598C144.587 13.5937 150.789 17.2503 150.789 17.2503C152.518 15.7415 153.91 13.8854 154.874 11.8028C156.344 8.439 155.174 2.92344 149.237 2.73958Z" fill="#263238"/>
<path d="M140.938 15.7454C141.054 16.2834 140.87 16.7804 140.516 16.8622C140.162 16.9439 139.788 16.5693 139.665 16.0314C139.542 15.4935 139.733 14.9896 140.08 14.9147C140.428 14.8398 140.816 15.2075 140.938 15.7454Z" fill="#263238"/>
<path d="M134.866 17.1073C134.988 17.6452 134.797 18.1423 134.45 18.224C134.103 18.3057 133.715 17.9312 133.592 17.3933C133.47 16.8553 133.66 16.3583 134.014 16.2765C134.368 16.1948 134.743 16.5693 134.866 17.1073Z" fill="#263238"/>
<path d="M134.185 16.2698L132.823 16.188C132.823 16.188 133.681 17.046 134.185 16.2698Z" fill="#263238"/>
<path d="M136.949 17.6589C136.748 18.9926 136.363 20.2919 135.805 21.5198C136.122 21.6541 136.466 21.717 136.811 21.7041C137.155 21.6912 137.493 21.6027 137.8 21.4449L136.949 17.6589Z" fill="#FF5652"/>
<path d="M141.204 22.8953C140.952 22.9959 140.692 23.0756 140.428 23.1336C140.406 23.1385 140.385 23.1392 140.363 23.1357C140.342 23.1322 140.322 23.1246 140.303 23.1132C140.285 23.1018 140.269 23.0869 140.257 23.0694C140.244 23.0519 140.235 23.032 140.23 23.011C140.225 22.99 140.224 22.9682 140.228 22.9469C140.231 22.9256 140.239 22.9052 140.25 22.8869C140.262 22.8686 140.277 22.8526 140.294 22.8401C140.312 22.8275 140.332 22.8185 140.353 22.8135C141.024 22.6788 141.654 22.3879 142.193 21.9644C142.731 21.5409 143.162 20.9967 143.451 20.3758C143.458 20.3557 143.47 20.3372 143.485 20.3215C143.499 20.3058 143.517 20.2932 143.537 20.2843C143.556 20.2754 143.577 20.2705 143.599 20.2699C143.62 20.2692 143.642 20.2728 143.662 20.2805C143.682 20.2873 143.7 20.2981 143.716 20.3121C143.731 20.3262 143.744 20.3433 143.753 20.3624C143.762 20.3814 143.767 20.4021 143.768 20.4231C143.768 20.4442 143.765 20.4651 143.757 20.4848C143.514 21.0363 143.162 21.5337 142.724 21.9476C142.285 22.3615 141.768 22.6837 141.204 22.8953Z" fill="#263238"/>
<path d="M153.656 16.8145C153.451 18.1094 152.741 19.2702 151.682 20.0421C150.265 21.0567 148.958 19.9332 148.869 18.2921C148.774 16.8145 149.4 14.5061 151.055 14.1452C151.418 14.0742 151.793 14.0947 152.146 14.2049C152.499 14.3151 152.819 14.5115 153.078 14.7764C153.336 15.0413 153.524 15.3664 153.625 15.7222C153.726 16.078 153.737 16.4534 153.656 16.8145Z" fill="#FF8B7B"/>
<path d="M141.865 12.8379C141.799 12.857 141.729 12.8541 141.665 12.8295C141.601 12.8049 141.547 12.76 141.511 12.7017C140.7 11.4419 138.787 11.3398 138.787 11.3398C138.744 11.3389 138.702 11.3296 138.663 11.3122C138.624 11.2949 138.589 11.27 138.56 11.2389C138.531 11.2078 138.508 11.1712 138.493 11.1312C138.478 11.0913 138.472 11.0487 138.474 11.0061C138.475 10.9632 138.486 10.921 138.504 10.8821C138.522 10.8431 138.547 10.808 138.579 10.7789C138.61 10.7498 138.648 10.7273 138.688 10.7125C138.728 10.6977 138.771 10.6911 138.814 10.6929C138.903 10.6929 141.095 10.8087 142.083 12.3476C142.105 12.3829 142.121 12.4224 142.129 12.4637C142.136 12.5051 142.135 12.5475 142.127 12.5886C142.118 12.6297 142.101 12.6687 142.077 12.7033C142.053 12.7379 142.023 12.7674 141.987 12.7902C141.951 12.8154 141.909 12.8317 141.865 12.8379Z" fill="#263238"/>
<path d="M131.4 15.2007C131.334 15.2293 131.261 15.235 131.191 15.2167C131.122 15.1983 131.06 15.1572 131.017 15.0998C130.974 15.0423 130.951 14.9721 130.953 14.9002C130.954 14.8283 130.98 14.7591 131.026 14.7036C131.331 14.2897 131.732 13.9554 132.195 13.729C132.657 13.5026 133.167 13.3908 133.681 13.403C133.723 13.4065 133.764 13.4182 133.802 13.4375C133.839 13.4569 133.873 13.4834 133.9 13.5157C133.927 13.548 133.948 13.5853 133.96 13.6256C133.973 13.6659 133.978 13.7082 133.974 13.7503C133.965 13.8352 133.925 13.9135 133.86 13.9692C133.795 14.025 133.712 14.0538 133.627 14.0499C133.22 14.0444 132.817 14.1368 132.454 14.3193C132.09 14.5018 131.775 14.7691 131.536 15.0986C131.502 15.1453 131.455 15.1809 131.4 15.2007Z" fill="#263238"/>
<path d="M100.308 156.508L94.2829 153.839L100.138 138.491L106.156 141.16L100.308 156.508Z" fill="#FF8B7B"/>
<path d="M94.0515 152.566L101.322 155.031C101.449 155.071 101.556 155.157 101.623 155.271C101.691 155.385 101.715 155.52 101.69 155.65L100.567 161.697C100.532 161.847 100.466 161.989 100.374 162.112C100.281 162.235 100.164 162.338 100.029 162.413C99.8941 162.488 99.7451 162.534 99.5915 162.548C99.4379 162.562 99.2831 162.543 99.1371 162.494C96.6181 161.588 95.4472 161.03 92.2542 159.94C90.2867 159.259 86.127 158.578 83.4038 157.659C80.6806 156.74 81.4567 154.002 82.6686 154.145C88.115 154.779 90.6611 153.464 92.8805 152.613C93.2541 152.465 93.6671 152.448 94.0515 152.566Z" fill="#263238"/>
<g opacity="0.2">
<path d="M106.156 141.167L100.131 138.497L96.6453 147.656L102.977 149.515L106.156 141.167Z" fill="black"/>
</g>
<path d="M148.12 77.1248C148.12 77.1248 110.949 79.7941 109.485 92.405C106.987 113.861 96.55 143.509 96.55 143.509L104.91 147.064C104.91 147.064 120.419 118.512 124.735 99.8817C131.931 95.7961 167.789 110.395 162.553 76.2669L148.12 77.1248Z" fill="#263238"/>
<path d="M105.85 148.296L94.8072 144.912L95.5969 140.84L107.865 144.476L105.85 148.296Z" fill="#8B3BDC"/>
<path d="M90.3821 152.259L90.3412 152.191C90.2643 152.054 90.2239 151.899 90.2239 151.742C90.2239 151.584 90.2643 151.43 90.3412 151.292C90.378 151.201 90.4396 151.122 90.5191 151.064C90.5985 151.007 90.6926 150.972 90.7906 150.965C91.6622 150.877 93.1943 152.811 93.3646 153.008C93.3844 153.033 93.3953 153.065 93.3953 153.097C93.3953 153.129 93.3844 153.16 93.3646 153.185C93.3497 153.213 93.3268 153.236 93.2989 153.25C93.2709 153.265 93.2392 153.271 93.2079 153.267C92.3704 153.212 90.8587 152.967 90.3821 152.259ZM92.8879 152.94C92.2478 152.184 91.3013 151.251 90.8451 151.299C90.8014 151.303 90.7596 151.319 90.7246 151.345C90.6897 151.372 90.663 151.408 90.6476 151.449C90.5963 151.54 90.5694 151.644 90.5694 151.748C90.5694 151.853 90.5963 151.957 90.6476 152.048C90.8451 152.45 91.6827 152.77 92.8879 152.926V152.94Z" fill="#8B3BDC"/>
<path d="M92.9827 153.035C92.5129 152.355 91.9749 150.816 92.3018 150.203C92.3686 150.088 92.473 150.001 92.5972 149.955C92.7213 149.909 92.8576 149.908 92.9827 149.951C93.1049 149.975 93.2201 150.026 93.3202 150.1C93.4202 150.175 93.5027 150.27 93.5615 150.38C94.0586 151.238 93.4321 153.104 93.4049 153.185C93.3962 153.212 93.38 153.236 93.3584 153.254C93.3367 153.272 93.3103 153.284 93.2823 153.287C93.2554 153.293 93.2273 153.292 93.201 153.284C93.1747 153.275 93.1511 153.26 93.1325 153.24C93.0783 153.175 93.0282 153.107 92.9827 153.035ZM93.2619 150.496C93.225 150.437 93.1763 150.387 93.1188 150.348C93.0614 150.309 92.9965 150.283 92.9282 150.271C92.724 150.23 92.6491 150.271 92.6082 150.366C92.3699 150.782 92.7512 152.082 93.2006 152.777C93.3709 152.143 93.5819 151.054 93.2891 150.536L93.2619 150.496Z" fill="#8B3BDC"/>
<path d="M117.845 137.217L112.202 140.615L103.004 127.003L108.648 123.605L117.845 137.217Z" fill="#FF8B7B"/>
<path d="M111.037 140.07L117.233 135.535C117.336 135.466 117.46 135.435 117.584 135.446C117.708 135.457 117.824 135.51 117.914 135.597L122.203 139.982C122.307 140.096 122.385 140.231 122.433 140.378C122.481 140.525 122.498 140.68 122.482 140.834C122.466 140.987 122.418 141.136 122.34 141.27C122.263 141.403 122.158 141.519 122.032 141.609C119.847 143.148 118.717 143.782 115.994 145.777C114.319 147.002 111.344 150.033 109.029 151.721C106.714 153.41 104.944 151.217 105.727 150.305C109.369 146.219 109.771 143.373 110.329 141.085C110.437 140.673 110.688 140.314 111.037 140.07Z" fill="#263238"/>
<g opacity="0.2">
<path d="M108.648 123.612L103.004 127.01L108.491 135.127L113.652 131.007L108.648 123.612Z" fill="black"/>
</g>
<path d="M131.461 77.9011C131.461 77.9011 92.2134 76.0966 89.9327 88.585C86.0453 109.837 105.033 132.846 105.033 132.846L112.767 128.025C112.767 128.025 106.919 111.682 104.692 97.0558C112.14 93.4605 152.158 111.539 149.149 77.1453L131.461 77.9011Z" fill="#263238"/>
<path opacity="0.2" d="M118.478 83.5393C117.847 83.5399 117.224 83.6818 116.654 83.9546C112.12 86.0927 108.77 88.8505 108.212 92.405C108.001 93.7669 107.756 95.1288 107.484 96.5383C107.933 96.5383 108.409 96.5383 108.92 96.5383C109.138 95.1288 109.329 93.7396 109.485 92.3846C109.921 88.5986 113.57 85.7114 118.478 83.5324V83.5393Z" fill="black"/>
<path d="M114.312 127.957L105.189 135.059L102.316 132.063L112.345 124.116L114.312 127.957Z" fill="#8B3BDC"/>
<path d="M108.662 142.896H108.58C108.424 142.875 108.275 142.815 108.149 142.721C108.023 142.627 107.923 142.502 107.858 142.358C107.809 142.273 107.783 142.177 107.783 142.079C107.783 141.981 107.809 141.885 107.858 141.8C108.294 141.044 110.759 140.901 111.038 140.881C111.07 140.88 111.101 140.888 111.128 140.905C111.154 140.922 111.175 140.947 111.188 140.976C111.204 141.003 111.213 141.033 111.213 141.065C111.213 141.096 111.204 141.126 111.188 141.153C110.582 141.82 109.513 142.917 108.662 142.896ZM110.65 141.235C109.663 141.323 108.355 141.562 108.13 141.963C108.107 142 108.094 142.042 108.094 142.086C108.094 142.129 108.107 142.172 108.13 142.209C108.17 142.305 108.234 142.389 108.317 142.452C108.399 142.515 108.497 142.556 108.6 142.569C109.084 142.631 109.826 142.127 110.65 141.269V141.235Z" fill="#8B3BDC"/>
<path d="M110.793 141.214C109.948 141.214 108.396 140.765 108.103 140.125C108.049 140.009 108.037 139.878 108.068 139.754C108.099 139.63 108.171 139.521 108.273 139.444C108.364 139.359 108.471 139.294 108.589 139.254C108.706 139.214 108.831 139.2 108.954 139.212C109.942 139.308 111.113 140.888 111.161 140.956C111.174 140.981 111.181 141.009 111.181 141.037C111.181 141.066 111.174 141.094 111.161 141.119C111.148 141.144 111.129 141.165 111.107 141.182C111.084 141.198 111.059 141.209 111.031 141.214C110.952 141.22 110.872 141.22 110.793 141.214ZM108.873 139.526C108.803 139.525 108.735 139.537 108.67 139.563C108.606 139.589 108.548 139.627 108.498 139.675C108.341 139.818 108.362 139.914 108.396 139.989C108.593 140.425 109.874 140.86 110.704 140.894C110.289 140.384 109.513 139.587 108.927 139.532L108.873 139.526Z" fill="#8B3BDC"/>
<path d="M140.244 14.9079L138.882 14.8262C138.882 14.8262 139.76 15.6841 140.244 14.9079Z" fill="#263238"/>
<path d="M153.022 67.8369L146.439 64.4935L148.025 71.262C148.025 71.262 152.246 72.44 154.214 70.3904L153.022 67.8369Z" fill="#FF8B7B"/>
<path d="M168.449 41.689C168.735 42.2542 168.932 42.69 169.13 43.1735C169.327 43.6569 169.532 44.1268 169.722 44.6034C170.103 45.5567 170.457 46.5169 170.791 47.477C171.438 49.404 171.982 51.3583 172.466 53.3262C172.949 55.2941 173.31 57.2824 173.616 59.2844C173.753 60.2922 173.895 61.2931 173.984 62.3009L174.113 63.8126L174.147 64.2212C174.147 64.4322 174.147 64.6365 174.147 64.8544C174.143 65.3119 174.095 65.7679 174.004 66.2163C173.808 67.1475 173.401 68.0212 172.813 68.7698C172.297 69.4232 171.67 69.981 170.961 70.4177C169.842 71.0731 168.62 71.5336 167.346 71.7795C165.233 72.1925 163.077 72.3434 160.926 72.2289C156.924 72.0503 152.952 71.4546 149.074 70.4517L149.659 67.047C153.393 67.2887 157.138 67.2887 160.872 67.047C162.591 66.9509 164.295 66.6631 165.951 66.189C166.569 66.0209 167.155 65.7468 167.68 65.3787C167.796 65.3041 167.888 65.1977 167.945 65.0723C167.945 65.011 167.945 65.0315 167.945 65.0042L167.646 63.1385C167.496 62.226 167.305 61.3204 167.142 60.4147C166.761 58.6103 166.318 56.8126 165.848 55.0353C165.379 53.2581 164.793 51.5013 164.18 49.7717C163.881 48.9001 163.561 48.0422 163.227 47.1978L162.717 45.9449C162.553 45.5499 162.356 45.0937 162.22 44.7941L168.449 41.689Z" fill="#FF8B7B"/>
<path d="M165.052 34.6209C167.877 35.3019 171.771 44.6579 171.771 44.6579L163.044 52.584C163.044 52.584 157.066 45.2571 158.012 41.5937C159.013 37.7668 161.832 33.8447 165.052 34.6209Z" fill="#8B3BDC"/>
<path d="M140.809 65.6035L142.443 71.1939L148.032 71.262L146.446 64.4935L140.809 65.6035Z" fill="#FF8B7B"/>
<path d="M146.017 80.9653H117.423C116.347 80.9217 115.316 80.5204 114.494 79.8248C113.671 79.1292 113.104 78.1791 112.882 77.1248L109.478 58.4877C109.367 58.0208 109.365 57.5345 109.472 57.0666C109.58 56.5988 109.794 56.162 110.097 55.7904C110.401 55.4188 110.786 55.1222 111.223 54.924C111.66 54.7257 112.137 54.631 112.617 54.6472H141.245C142.321 54.6908 143.352 55.0921 144.174 55.7877C144.997 56.4833 145.564 57.4334 145.785 58.4877L149.189 77.1248C149.302 77.5946 149.303 78.0841 149.194 78.5546C149.085 79.0251 148.868 79.4639 148.561 79.8362C148.253 80.2086 147.863 80.5044 147.422 80.7003C146.98 80.8963 146.499 80.987 146.017 80.9653Z" fill="white"/>
<path opacity="0.5" d="M145.506 80.9653H117.389C116.313 80.9217 115.282 80.5204 114.46 79.8248C113.637 79.1292 113.07 78.1791 112.848 77.1248L109.444 58.4877C109.333 58.0208 109.331 57.5345 109.438 57.0666C109.546 56.5988 109.759 56.162 110.063 55.7904C110.367 55.4188 110.752 55.1222 111.189 54.924C111.626 54.7257 112.103 54.631 112.583 54.6472H140.7C141.776 54.6908 142.807 55.0921 143.629 55.7877C144.452 56.4833 145.019 57.4334 145.241 58.4877L148.645 77.1248C148.756 77.5917 148.758 78.078 148.651 78.5459C148.543 79.0137 148.33 79.4505 148.026 79.8221C147.722 80.1938 147.337 80.4903 146.9 80.6886C146.463 80.8868 145.986 80.9816 145.506 80.9653Z" fill="#8B3BDC"/>
<path d="M109.438 66.7815L110.52 72.8622L112.89 70.6424L112.25 66.1142C112.224 65.9307 112.147 65.7584 112.027 65.6171C111.907 65.4758 111.75 65.3713 111.573 65.3157C111.396 65.2601 111.208 65.2557 111.028 65.303C110.849 65.3503 110.687 65.4474 110.561 65.583L109.438 66.7815Z" fill="#FF8B7B"/>
</svg>
